<svg width="118" height="26" viewBox="0 0 118 26" fill="none" xmlns="http://www.w3.org/2000/svg">
<path d="M0.657504 19.4738V1.32383H4.9035C6.6635 1.32383 8.03484 1.71616 9.0175 2.50083C10.0002 3.27816 10.4915 4.41116 10.4915 5.89983C10.4915 7.86516 9.64817 9.22183 7.9615 9.96983C9.28884 10.1605 10.3082 10.6518 11.0195 11.4438C11.7382 12.2285 12.0975 13.2625 12.0975 14.5458C12.0975 15.5725 11.8665 16.4562 11.4045 17.1968C10.9425 17.9302 10.2825 18.4948 9.4245 18.8908C8.5665 19.2795 7.5435 19.4738 6.3555 19.4738H0.657504ZM2.8905 9.24383H4.4525C5.7065 9.24383 6.66717 8.97983 7.3345 8.45183C8.00917 7.9165 8.3465 7.15016 8.3465 6.15283C8.3465 5.1555 8.01284 4.3965 7.3455 3.87583C6.67817 3.34783 5.71384 3.08383 4.4525 3.08383H2.8905V9.24383ZM2.8905 17.6918H5.6845C7.01184 17.6918 8.0275 17.4168 8.7315 16.8668C9.4355 16.3095 9.7875 15.5138 9.7875 14.4798C9.7875 13.4385 9.42817 12.6318 8.7095 12.0598C7.99817 11.4805 6.98984 11.1908 5.6845 11.1908H2.8905V17.6918ZM13.7621 19.4738V8.20983H15.8961V19.4738H13.7621ZM14.8291 5.93283C14.5871 5.93283 14.3634 5.87416 14.1581 5.75683C13.9601 5.63216 13.7987 5.46716 13.6741 5.26183C13.5567 5.0565 13.4981 4.83283 13.4981 4.59083C13.4981 4.3415 13.5567 4.11783 13.6741 3.91983C13.7987 3.72183 13.9601 3.56416 14.1581 3.44683C14.3634 3.32216 14.5871 3.25983 14.8291 3.25983C15.0784 3.25983 15.3021 3.32216 15.5001 3.44683C15.6981 3.56416 15.8557 3.72183 15.9731 3.91983C16.0977 4.11783 16.1601 4.3415 16.1601 4.59083C16.1601 4.83283 16.0977 5.0565 15.9731 5.26183C15.8557 5.46716 15.6981 5.63216 15.5001 5.75683C15.3021 5.87416 15.0784 5.93283 14.8291 5.93283ZM24.0157 25.5238C22.5637 25.5238 21.3391 25.2452 20.3417 24.6878C19.3444 24.1305 18.6074 23.3165 18.1307 22.2458L19.9017 21.4098C20.2391 22.1065 20.7781 22.6602 21.5187 23.0708C22.2594 23.4888 23.0917 23.6978 24.0157 23.6978C24.8077 23.6978 25.5117 23.5402 26.1277 23.2248C26.7511 22.9095 27.2387 22.4585 27.5907 21.8718C27.9501 21.2852 28.1297 20.5848 28.1297 19.7708V17.3618C27.6531 18.1318 27.0261 18.7368 26.2487 19.1768C25.4714 19.6095 24.6134 19.8258 23.6747 19.8258C22.6334 19.8258 21.6911 19.5692 20.8477 19.0558C20.0044 18.5425 19.3334 17.8348 18.8347 16.9328C18.3361 16.0308 18.0867 15.0005 18.0867 13.8418C18.0867 12.6905 18.3324 11.6675 18.8237 10.7728C19.3151 9.87083 19.9824 9.1595 20.8257 8.63883C21.6764 8.11816 22.6407 7.85783 23.7187 7.85783C24.6574 7.85783 25.5154 8.0705 26.2927 8.49583C27.0701 8.92116 27.6824 9.5115 28.1297 10.2668V8.20983H30.2637V19.7818C30.2637 20.9845 30.0181 22.0148 29.5267 22.8728C29.0427 23.7308 28.3351 24.3872 27.4037 24.8418C26.4724 25.2965 25.3431 25.5238 24.0157 25.5238ZM24.2467 17.9888C25.0167 17.9888 25.6987 17.8128 26.2927 17.4608C26.8941 17.1015 27.3634 16.6102 27.7007 15.9868C28.0381 15.3635 28.2067 14.6522 28.2067 13.8528C28.2067 13.0462 28.0344 12.3312 27.6897 11.7078C27.3524 11.0772 26.8867 10.5858 26.2927 10.2338C25.6987 9.8745 25.0204 9.69483 24.2577 9.69483C23.4951 9.69483 22.8167 9.8745 22.2227 10.2338C21.6287 10.5858 21.1594 11.0772 20.8147 11.7078C20.4774 12.3312 20.3087 13.0462 20.3087 13.8528C20.3087 14.6522 20.4774 15.3635 20.8147 15.9868C21.1521 16.6102 21.6177 17.1015 22.2117 17.4608C22.8057 17.8128 23.4841 17.9888 24.2467 17.9888ZM36.1505 19.4738L43.3335 1.32383H45.4125L52.5955 19.4738H50.1865L48.1735 14.1828H40.5725L38.5485 19.4738H36.1505ZM41.3315 12.2138H47.4145L44.3675 4.30483L41.3315 12.2138ZM54.8048 19.4738V1.32383H57.0378V19.4738H54.8048ZM61.1681 19.4738V1.32383H66.3161C67.5187 1.32383 68.5601 1.53283 69.4401 1.95083C70.3201 2.36883 70.9984 2.97016 71.4751 3.75483C71.9591 4.53216 72.2011 5.46716 72.2011 6.55983C72.2011 7.51316 72.0141 8.36016 71.6401 9.10083C71.2661 9.8415 70.7307 10.4465 70.0341 10.9158C69.3447 11.3852 68.5197 11.6932 67.5591 11.8398L73.5651 19.4738H70.7271L65.1061 12.0708H63.4011V19.4738H61.1681ZM63.4011 10.1678H65.7111C66.5764 10.1678 67.3207 10.0248 67.9441 9.73883C68.5674 9.45283 69.0477 9.04583 69.3851 8.51783C69.7224 7.9825 69.8911 7.34816 69.8911 6.61483C69.8911 5.52216 69.5207 4.66783 68.7801 4.05183C68.0467 3.43583 67.0237 3.12783 65.7111 3.12783H63.4011V10.1678ZM79.6524 19.4738V1.32383H81.8854V17.5048H89.1784V19.4738H79.6524ZM95.6857 19.8258C94.6371 19.8258 93.6874 19.5692 92.8367 19.0558C91.9934 18.5352 91.3224 17.8238 90.8237 16.9218C90.3324 16.0198 90.0867 14.9895 90.0867 13.8308C90.0867 12.6868 90.3287 11.6675 90.8127 10.7728C91.2967 9.87083 91.9604 9.1595 92.8037 8.63883C93.6471 8.11816 94.6077 7.85783 95.6857 7.85783C96.6391 7.85783 97.5081 8.0705 98.2927 8.49583C99.0847 8.92116 99.6971 9.5115 100.13 10.2668V8.20983H102.264V19.4738H100.13V17.3618C99.6384 18.1392 99.0077 18.7442 98.2377 19.1768C97.4677 19.6095 96.6171 19.8258 95.6857 19.8258ZM96.2577 17.9888C97.0277 17.9888 97.7061 17.8128 98.2927 17.4608C98.8867 17.1015 99.3524 16.6102 99.6897 15.9868C100.027 15.3635 100.196 14.6485 100.196 13.8418C100.196 13.0352 100.027 12.3202 99.6897 11.6968C99.3524 11.0735 98.8867 10.5858 98.2927 10.2338C97.7061 9.8745 97.0277 9.69483 96.2577 9.69483C95.4951 9.69483 94.8167 9.8745 94.2227 10.2338C93.6287 10.5858 93.1594 11.0735 92.8147 11.6968C92.4774 12.3202 92.3087 13.0352 92.3087 13.8418C92.3087 14.6412 92.4774 15.3562 92.8147 15.9868C93.1594 16.6102 93.6287 17.1015 94.2227 17.4608C94.8167 17.8128 95.4951 17.9888 96.2577 17.9888ZM111.856 19.8258C110.925 19.8258 110.071 19.6095 109.293 19.1768C108.516 18.7368 107.885 18.1318 107.401 17.3618V19.4738H105.267V0.553831H107.401V10.2668C107.856 9.5115 108.468 8.92116 109.238 8.49583C110.016 8.0705 110.874 7.85783 111.812 7.85783C112.89 7.85783 113.855 8.11816 114.705 8.63883C115.556 9.1595 116.223 9.87083 116.707 10.7728C117.199 11.6675 117.444 12.6905 117.444 13.8418C117.444 15.0005 117.195 16.0308 116.696 16.9328C116.205 17.8348 115.538 18.5425 114.694 19.0558C113.851 19.5692 112.905 19.8258 111.856 19.8258ZM111.284 17.9888C112.054 17.9888 112.733 17.8128 113.319 17.4608C113.913 17.1015 114.379 16.6102 114.716 15.9868C115.054 15.3635 115.222 14.6522 115.222 13.8528C115.222 13.0462 115.05 12.3312 114.705 11.7078C114.368 11.0772 113.902 10.5858 113.308 10.2338C112.722 9.8745 112.047 9.69483 111.284 9.69483C110.522 9.69483 109.84 9.8745 109.238 10.2338C108.644 10.5858 108.175 11.0772 107.83 11.7078C107.493 12.3312 107.324 13.0462 107.324 13.8528C107.324 14.6522 107.493 15.3635 107.83 15.9868C108.168 16.6102 108.633 17.1015 109.227 17.4608C109.829 17.8128 110.514 17.9888 111.284 17.9888Z" fill="#333333"/>
</svg>
