<svg width="44" height="44" viewBox="0 0 44 44" fill="none" xmlns="http://www.w3.org/2000/svg">
<path d="M38.6665 17.0952C39.2651 19.3293 39.4178 21.6595 39.1159 23.9526C38.814 26.2458 38.0634 28.457 36.907 30.4601C35.7505 32.4631 34.2108 34.2188 32.3758 35.6269C30.5408 37.0349 28.4465 38.0677 26.2123 38.6663C23.9782 39.265 21.648 39.4177 19.3549 39.1158C17.0617 38.8139 14.8505 38.0633 12.8474 36.9068C10.8444 35.7503 9.08868 34.2106 7.68065 32.3757C6.27262 30.5407 5.23981 28.4463 4.64118 26.2122" stroke="#333333" stroke-width="1.73229" stroke-linecap="round"/>
<path d="M31.6171 11.6902C34.2595 14.3326 35.744 17.9165 35.744 21.6535C35.744 25.3904 34.2595 28.9743 31.6171 31.6168C28.9747 34.2592 25.3908 35.7437 21.6538 35.7437C17.9168 35.7437 14.3329 34.2592 11.6905 31.6168" stroke="#333333" stroke-width="1.73229" stroke-linecap="round"/>
<path d="M24.3886 11.4459C27.0958 12.1713 29.404 13.9424 30.8054 16.3696C32.2067 18.7969 32.5865 21.6814 31.8611 24.3886C31.1357 27.0958 29.3646 29.404 26.9373 30.8054C24.5101 32.2067 21.6256 32.5865 18.9184 31.8611" stroke="#333333" stroke-width="1.73229" stroke-linecap="round"/>
<path d="M19.8303 14.8485C21.6352 14.3649 23.5582 14.6181 25.1763 15.5524C26.7945 16.4866 27.9752 18.0254 28.4588 19.8302C28.9424 21.635 28.6892 23.558 27.755 25.1762C26.8208 26.7943 25.282 27.9751 23.4772 28.4587" stroke="#333333" stroke-width="1.73229" stroke-linecap="round"/>
<path d="M18.6033 19.8923C19.0704 19.0832 19.8398 18.4929 20.7422 18.2511C21.6446 18.0093 22.6061 18.1359 23.4152 18.603C24.2243 19.0701 24.8146 19.8395 25.0564 20.7419C25.2982 21.6443 25.1717 22.6058 24.7045 23.4149" stroke="#333333" stroke-width="1.73229" stroke-linecap="round"/>
</svg>
