<svg width="135" height="135" viewBox="0 0 135 135" fill="none" xmlns="http://www.w3.org/2000/svg">
<g opacity="0.8">
<path d="M72.9761 57.5984C75.5294 59.0725 77.4011 61.4885 78.1918 64.3257C78.2085 64.3856 78.1728 64.4474 78.1128 64.4635V64.4635C78.0527 64.4796 77.991 64.4438 77.9743 64.3839C77.1991 61.6045 75.3651 59.2376 72.8635 57.7934C70.3294 56.3303 67.318 55.9339 64.4916 56.6912C61.6652 57.4485 59.2554 59.2976 57.7923 61.8317C56.348 64.3332 55.9431 67.3 56.6615 70.0947C56.677 70.1549 56.6414 70.2167 56.5814 70.2328V70.2328C56.5213 70.2489 56.4595 70.2132 56.444 70.153C55.7102 67.3006 56.1232 64.2724 57.5973 61.7191C59.0902 59.1333 61.5492 57.2465 64.4333 56.4737C67.3174 55.7009 70.3903 56.1055 72.9761 57.5984Z" stroke="#333333" stroke-width="0.81058" stroke-linecap="round" style="mix-blend-mode:multiply"/>
<path d="M67.1856 60.7505C68.9207 60.7505 70.587 61.4181 71.8411 62.6111C71.9087 62.6754 71.9085 62.7824 71.8426 62.8484V62.8484C71.7766 62.9143 71.6698 62.9142 71.6022 62.85C70.4115 61.7203 68.8311 61.0883 67.1856 61.0883C65.4837 61.0883 63.8515 61.7644 62.648 62.9678C61.4446 64.1712 60.7685 65.8035 60.7685 67.5054C60.7685 69.1509 61.4005 70.7313 62.5302 71.922C62.5944 71.9896 62.5946 72.0964 62.5286 72.1623V72.1623C62.4627 72.2283 62.3556 72.2284 62.2913 72.1609C61.0983 70.9068 60.4308 69.2405 60.4308 67.5054C60.4308 65.7139 61.1424 63.9958 62.4092 62.729C63.676 61.4622 65.3941 60.7505 67.1856 60.7505Z" stroke="#333333" stroke-width="0.81058" stroke-linecap="round" style="mix-blend-mode:multiply"/>
<path d="M66.0233 63.158C67.1043 62.8684 68.2516 62.9922 69.2427 63.5002C69.3534 63.557 69.39 63.6952 69.3279 63.8029V63.8029C69.2657 63.9106 69.1282 63.9469 69.0172 63.8908C68.1298 63.4421 67.1054 63.3343 66.1399 63.593C65.1016 63.8712 64.2164 64.5505 63.6789 65.4814C63.1415 66.4122 62.9958 67.5185 63.274 68.5568C63.5328 69.5223 64.1383 70.3556 64.9706 70.8998C65.0747 70.9678 65.112 71.105 65.0498 71.2127V71.2127C64.9876 71.3204 64.8496 71.3578 64.7451 71.2903C63.8096 70.6859 63.1287 69.7543 62.8391 68.6733C62.5299 67.5197 62.6918 66.2905 63.2889 65.2562C63.8861 64.2219 64.8697 63.4671 66.0233 63.158Z" stroke="#333333" stroke-width="0.81058" stroke-linecap="round" style="mix-blend-mode:multiply"/>
<path d="M72.8292 60.2009C73.7079 60.8752 74.4543 61.7054 75.0312 62.6494C75.0961 62.7555 75.0589 62.8934 74.9512 62.9555V62.9555C74.8435 63.0177 74.7061 62.9807 74.6411 62.8746C74.0938 61.9818 73.3869 61.1964 72.5551 60.5582C71.6636 59.8742 70.6462 59.3724 69.5609 59.0816C68.4756 58.7908 67.3436 58.7166 66.2296 58.8633C65.1156 59.0099 64.0414 59.3746 63.0684 59.9364C62.0953 60.4982 61.2424 61.2461 60.5584 62.1376C59.8744 63.029 59.3726 64.0464 59.0818 65.1317C58.791 66.217 58.7168 67.349 58.8635 68.463C59.0003 69.5025 59.327 70.5074 59.8266 71.4278C59.8859 71.5371 59.8493 71.6747 59.7416 71.7368V71.7368C59.6339 71.799 59.4959 71.7622 59.4365 71.653C58.9074 70.6814 58.5616 69.6199 58.417 68.5218C58.2626 67.3491 58.3407 66.1576 58.6469 65.0152C58.953 63.8727 59.4811 62.8017 60.2011 61.8634C60.9211 60.9251 61.8189 60.1378 62.8432 59.5464C63.8675 58.955 64.9982 58.5712 66.1708 58.4168C67.3435 58.2624 68.535 58.3405 69.6775 58.6466C70.8199 58.9527 71.8909 59.4809 72.8292 60.2009Z" stroke="#333333" stroke-width="0.81058" stroke-linecap="round" style="mix-blend-mode:multiply"/>
<path d="M79.8251 62.1758C80.4868 63.7732 80.8356 65.4825 80.8528 67.2106C80.8536 67.2852 80.793 67.3457 80.7184 67.3457V67.3457C80.6438 67.3457 80.5834 67.2852 80.5826 67.2106C80.5654 65.5179 80.2236 63.8438 79.5755 62.2792C78.9102 60.6729 77.935 59.2134 76.7056 57.984C75.4762 56.7546 74.0167 55.7794 72.4104 55.114C70.8041 54.4487 69.0825 54.1062 67.3438 54.1062C65.6052 54.1062 63.8836 54.4487 62.2773 55.114C60.671 55.7794 59.2115 56.7546 57.9821 57.984C56.7527 59.2134 55.7775 60.6729 55.1122 62.2792C54.4641 63.8438 54.1223 65.5179 54.1051 67.2106C54.1043 67.2852 54.0439 67.3457 53.9693 67.3457V67.3457C53.8947 67.3457 53.8341 67.2852 53.8348 67.2106C53.8521 65.4825 54.2008 63.7732 54.8625 62.1758C55.5415 60.5367 56.5366 59.0474 57.7911 57.7929C59.0456 56.5384 60.5348 55.5433 62.1739 54.8644C63.813 54.1855 65.5697 53.836 67.3438 53.836C69.118 53.836 70.8747 54.1855 72.5138 54.8644C74.1528 55.5433 75.6421 56.5384 76.8966 57.7929C78.1511 59.0474 79.1462 60.5367 79.8251 62.1758Z" stroke="#333333" stroke-width="0.81058" stroke-linecap="round" style="mix-blend-mode:multiply"/>
<path d="M80.9981 59.467C83.0619 63.0416 83.6401 67.2811 82.6127 71.2744C82.591 71.3587 82.5045 71.4087 82.4204 71.3862V71.3862C82.3363 71.3637 82.2865 71.2771 82.3082 71.1928C83.3139 67.2803 82.7471 63.1268 80.7251 59.6246C78.6768 56.0769 75.3031 53.4882 71.3462 52.4279C67.3892 51.3676 63.1731 51.9227 59.6254 53.971C56.1232 55.9929 53.5556 59.3065 52.4703 63.1978C52.4469 63.2816 52.3605 63.3317 52.2764 63.3091V63.3091C52.1923 63.2866 52.1424 63.2 52.1658 63.1162C53.2727 59.1442 55.8932 55.7618 59.4678 53.698C63.0879 51.6079 67.39 51.0415 71.4277 52.1234C75.4655 53.2053 78.908 55.8469 80.9981 59.467Z" stroke="#333333" stroke-width="0.81058" stroke-linecap="round" style="mix-blend-mode:multiply"/>
<path d="M84.9201 62.8584C86.141 67.4149 85.5252 72.266 83.2099 76.3704C83.1611 76.457 83.0507 76.4866 82.9646 76.4369V76.4369C82.8784 76.3871 82.8491 76.2769 82.8979 76.1903C85.1655 72.1686 85.7683 67.4158 84.5721 62.9517C83.3604 58.4294 80.4018 54.5738 76.3473 52.2329C72.2927 49.892 67.4744 49.2576 62.9521 50.4694C58.4879 51.6655 54.6733 54.564 52.3243 58.5385C52.2736 58.6242 52.1635 58.6539 52.0773 58.6041V58.6041C51.9912 58.5544 51.9616 58.444 52.0122 58.3584C54.4091 54.3011 58.3024 51.3423 62.8589 50.1214C67.4734 48.8849 72.3901 49.5322 76.5274 51.9209C80.6647 54.3095 83.6836 58.2439 84.9201 62.8584Z" stroke="#333333" stroke-width="0.81058" stroke-linecap="round" style="mix-blend-mode:multiply"/>
<path d="M87.751 67.4883C87.751 72.7951 85.6694 77.8874 81.9583 81.6733C81.88 81.7533 81.7515 81.7533 81.6723 81.6742V81.6742C81.5932 81.595 81.5934 81.4667 81.6717 81.3867C85.3068 77.6768 87.3457 72.6876 87.3457 67.4883C87.3457 62.2213 85.2534 57.17 81.5291 53.4457C77.8047 49.7214 72.7535 47.6291 67.4865 47.6291C62.2871 47.6291 57.298 49.668 53.588 53.303C53.5081 53.3814 53.3797 53.3815 53.3006 53.3024V53.3024C53.2215 53.2233 53.2215 53.0948 53.3014 53.0164C57.0874 49.3054 62.1796 47.2238 67.4865 47.2238C72.8609 47.2238 78.0153 49.3588 81.8156 53.1591C85.616 56.9594 87.751 62.1138 87.751 67.4883Z" stroke="#333333" stroke-width="0.81058" stroke-linecap="round" style="mix-blend-mode:multiply"/>
<path d="M85.4051 81.1606C83.6507 83.4468 81.4743 85.3745 78.9943 86.8396C78.8872 86.9028 78.7495 86.8658 78.6873 86.7581V86.7581C78.6251 86.6505 78.6621 86.5128 78.7691 86.4496C81.1979 85.0141 83.3295 83.1258 85.0478 80.8864C86.8118 78.5875 88.1058 75.9636 88.8557 73.1647C89.6057 70.3657 89.7971 67.4464 89.4188 64.5734C89.0406 61.7005 88.1002 58.9302 86.6514 56.4207C85.2025 53.9112 83.2735 51.7117 80.9746 49.9476C78.6757 48.1836 76.0518 46.8897 73.2529 46.1397C70.4539 45.3897 67.5346 45.1984 64.6617 45.5766C61.8632 45.945 59.162 46.8469 56.7045 48.2325C56.5962 48.2936 56.4585 48.2568 56.3963 48.1491V48.1491C56.3342 48.0414 56.371 47.9036 56.4793 47.8425C58.9881 46.4273 61.7457 45.5063 64.6029 45.1301C67.5344 44.7442 70.5133 44.9394 73.3694 45.7047C76.2255 46.47 78.9029 47.7904 81.2488 49.5904C83.5946 51.3904 85.5629 53.6348 87.0413 56.1955C88.5198 58.7563 89.4794 61.5831 89.8653 64.5147C90.2513 67.4462 90.056 70.4251 89.2907 73.2812C88.5254 76.1373 87.2051 78.8147 85.4051 81.1606Z" stroke="#333333" stroke-width="0.81058" stroke-linecap="round" style="mix-blend-mode:multiply"/>
<path d="M82.4092 87.2477C79.8943 89.1775 77.0329 90.606 73.9808 91.4566C73.8491 91.4934 73.7132 91.4148 73.6778 91.2827V91.2827C73.6424 91.1506 73.7209 91.0149 73.8526 90.9781C76.8419 90.1444 79.6443 88.7449 82.1076 86.8547C84.6364 84.9143 86.7583 82.4948 88.352 79.7343C89.9458 76.9739 90.9802 73.9265 91.3963 70.7663C91.8123 67.6061 91.6018 64.3949 90.7769 61.316C89.9519 58.2371 88.5285 55.3509 86.5881 52.8221C84.6477 50.2932 82.2282 48.1714 79.4677 46.5776C76.7073 44.9839 73.66 43.9495 70.4997 43.5334C67.4214 43.1281 64.2946 43.3174 61.289 44.0899C61.1565 44.124 61.0207 44.0457 60.9853 43.9136V43.9136C60.9499 43.7815 61.0283 43.6455 61.1608 43.6114C64.2293 42.822 67.4215 42.6285 70.5644 43.0423C73.7891 43.4668 76.8986 44.5224 79.7154 46.1487C82.5322 47.7749 85.0011 49.9401 86.9811 52.5205C88.9611 55.1009 90.4135 58.0461 91.2553 61.1878C92.0972 64.3295 92.3119 67.6063 91.8874 70.831C91.4628 74.0557 90.4073 77.1652 88.781 79.982C87.1548 82.7988 84.9896 85.2677 82.4092 87.2477Z" stroke="#333333" stroke-width="0.81058" stroke-linecap="round" style="mix-blend-mode:multiply"/>
<path d="M77.7267 92.5276C74.5318 93.8509 71.1134 94.5484 67.6571 94.5829C67.5079 94.5844 67.3869 94.4633 67.3869 94.3141V94.3141C67.3869 94.1649 67.5079 94.044 67.6571 94.0425C71.0424 94.008 74.3906 93.3245 77.52 92.0283C80.7325 90.6976 83.6515 88.7472 86.1103 86.2884C88.5691 83.8296 90.5196 80.9106 91.8503 77.698C93.181 74.4854 93.8658 71.0422 93.8658 67.5649C93.8659 64.0877 93.181 60.6445 91.8503 57.4319C90.5196 54.2193 88.5691 51.3003 86.1103 48.8415C83.6515 46.3827 80.7325 44.4323 77.52 43.1016C74.3906 41.8054 71.0424 41.1219 67.6571 41.0874C67.5079 41.0858 67.3869 40.965 67.3869 40.8158V40.8158C67.3869 40.6666 67.5079 40.5455 67.6571 40.5469C71.1134 40.5815 74.5318 41.2789 77.7268 42.6023C81.0049 43.9602 83.9835 45.9504 86.4925 48.4594C89.0014 50.9684 90.9917 53.9469 92.3495 57.2251C93.7074 60.5032 94.4062 64.0167 94.4062 67.5649C94.4062 71.1132 93.7074 74.6266 92.3495 77.9048C90.9917 81.1829 89.0014 84.1615 86.4925 86.6705C83.9835 89.1795 81.0049 91.1697 77.7267 92.5276Z" stroke="#333333" stroke-width="0.81058" stroke-linecap="round" style="mix-blend-mode:multiply"/>
<path d="M81.898 92.968C75.2596 96.8008 67.3862 97.8745 59.97 95.9666C59.8135 95.9263 59.7206 95.7656 59.7624 95.6095V95.6095C59.8043 95.4533 59.965 95.3609 60.1215 95.4011C67.3877 97.2689 75.1013 96.2161 81.6053 92.4611C88.194 88.6571 93.0016 82.3917 94.9707 75.043C96.9397 67.6944 95.9089 59.8645 92.105 53.2759C88.3499 46.7719 82.1961 42.0034 74.9695 39.9878C74.8138 39.9444 74.7209 39.784 74.7627 39.6278V39.6278C74.8045 39.4717 74.9653 39.3789 75.121 39.4223C82.4976 41.4781 88.7792 46.3447 92.612 52.9832C96.4935 59.7063 97.5454 67.6959 95.5361 75.1945C93.5269 82.6931 88.6211 89.0865 81.898 92.968Z" stroke="#333333" stroke-width="0.81058" stroke-linecap="round" style="mix-blend-mode:multiply"/>
<path d="M75.3867 98.0334C67.4129 100.17 58.9235 99.0924 51.7408 95.0407C51.5891 94.9551 51.5374 94.7621 51.6244 94.6113V94.6113C51.7115 94.4605 51.9044 94.4091 52.056 94.4947C59.0939 98.4628 67.4112 99.5178 75.2235 97.4244C83.1375 95.3039 89.8849 90.1264 93.9814 83.031C98.078 75.9356 99.1881 67.5034 97.0676 59.5895C94.9743 51.7772 89.902 45.1016 82.9465 40.9907C82.7967 40.9021 82.7447 40.7094 82.8318 40.5586V40.5586C82.9188 40.4078 83.1119 40.3562 83.2618 40.4447C90.3621 44.6392 95.54 51.4525 97.6765 59.4263C99.8403 67.5017 98.7076 76.106 94.5274 83.3462C90.3473 90.5865 83.4622 95.8696 75.3867 98.0334Z" stroke="#333333" stroke-width="0.81058" stroke-linecap="round" style="mix-blend-mode:multiply"/>
<path d="M54.1789 98.755C50.1853 97.1008 46.5473 94.6957 43.4618 91.6713C43.3286 91.5408 43.3287 91.3268 43.4606 91.1949V91.1949C43.5925 91.063 43.8062 91.0631 43.9395 91.1937C46.9622 94.1554 50.5257 96.5107 54.4374 98.131C58.4531 99.7943 62.7571 100.65 67.1037 100.65C71.4503 100.65 75.7543 99.7943 79.7701 98.131C83.7858 96.4676 87.4345 94.0296 90.508 90.9561C93.5815 87.8826 96.0196 84.2338 97.6829 80.2181C99.3463 76.2024 100.202 71.8983 100.202 67.5518C100.202 63.2052 99.3463 58.9012 97.6829 54.8854C96.0627 50.9738 93.7074 47.4103 90.7457 44.3875C90.6151 44.2543 90.615 44.0405 90.7469 43.9086V43.9086C90.8788 43.7767 91.0927 43.7766 91.2233 43.9098C94.2477 46.9953 96.6528 50.6333 98.307 54.6269C100.004 58.7246 100.878 63.1165 100.878 67.5518C100.878 71.987 100.004 76.3789 98.307 80.4766C96.6097 84.5742 94.1219 88.2975 90.9857 91.4337C87.8495 94.5699 84.1262 97.0577 80.0285 98.755C75.9309 100.452 71.539 101.326 67.1037 101.326C62.6684 101.326 58.2766 100.452 54.1789 98.755Z" stroke="#333333" stroke-width="0.81058" stroke-linecap="round" style="mix-blend-mode:multiply"/>
<path d="M45.0483 96.0983C41.3903 93.2914 38.306 89.809 35.9619 85.8411C35.8607 85.6698 35.9198 85.4493 36.0921 85.3498V85.3498C36.2645 85.2504 36.4846 85.3095 36.5859 85.4808C38.8826 89.3668 41.9039 92.7773 45.4869 95.5266C49.1652 98.3491 53.3634 100.419 57.8417 101.619C62.3201 102.819 66.991 103.125 71.5877 102.52C76.1844 101.915 80.6169 100.411 84.6321 98.0923C88.6473 95.7742 92.1665 92.6878 94.989 89.0096C97.8114 85.3313 99.8817 81.1331 101.082 76.6547C102.282 72.1764 102.588 67.5055 101.983 62.9088C101.393 58.4312 99.9502 54.1094 97.7332 50.1773C97.6355 50.004 97.6943 49.7838 97.8666 49.6843V49.6843C98.039 49.5848 98.2595 49.6438 98.3572 49.8171C100.622 53.8311 102.095 58.2433 102.697 62.8147C103.315 67.5052 103.002 72.2714 101.778 76.8412C100.553 81.411 98.4406 85.6948 95.5606 89.4482C92.6806 93.2015 89.0895 96.3508 84.9923 98.7163C80.8952 101.082 76.3722 102.617 71.6817 103.235C66.9912 103.852 62.225 103.54 57.6552 102.315C53.0855 101.091 48.8016 98.9783 45.0483 96.0983Z" stroke="#333333" stroke-width="0.81058" stroke-linecap="round" style="mix-blend-mode:multiply"/>
<path d="M48.0757 100.633C39.3947 95.6211 33.0306 87.4066 30.3423 77.7603C30.2856 77.5567 30.4069 77.3464 30.6111 77.2917V77.2917C30.8152 77.237 31.025 77.3585 31.0818 77.5622C33.7176 87.0123 39.9533 95.0596 48.4585 99.9701C57.0744 104.944 67.3135 106.292 76.9232 103.718C86.533 101.143 94.7263 94.8557 99.7007 86.2398C104.611 77.7346 105.988 67.6476 103.545 58.1456C103.493 57.9409 103.614 57.7308 103.818 57.676V57.676C104.022 57.6213 104.232 57.7427 104.285 57.9475C106.78 67.6456 105.376 77.9415 100.364 86.6226C95.2877 95.4143 86.9272 101.83 77.1214 104.457C67.3155 107.084 56.8675 105.709 48.0757 100.633Z" stroke="#333333" stroke-width="0.81058" stroke-linecap="round" style="mix-blend-mode:multiply"/>
<path d="M29.9157 82.96C27.9307 78.1676 26.8845 73.0399 26.8327 67.8555C26.8304 67.6317 27.0121 67.4502 27.2359 67.4502V67.4502C27.4598 67.4502 27.641 67.6317 27.6433 67.8555C27.6951 72.9335 28.7203 77.9558 30.6646 82.6498C32.6606 87.4686 35.5863 91.8472 39.2745 95.5354C42.9627 99.2236 47.3412 102.149 52.1601 104.145C56.9789 106.141 62.1437 107.169 67.3596 107.169C72.5755 107.169 77.7404 106.141 82.5592 104.145C87.3781 102.149 91.7566 99.2236 95.4448 95.5354C99.133 91.8472 102.059 87.4686 104.055 82.6498C105.999 77.9558 107.024 72.9335 107.076 67.8555C107.078 67.6317 107.26 67.4502 107.483 67.4502V67.4502C107.707 67.4502 107.889 67.6317 107.887 67.8555C107.835 73.0399 106.789 78.1676 104.804 82.96C102.767 87.8772 99.7815 92.3451 96.018 96.1085C92.2545 99.872 87.7866 102.857 82.8694 104.894C77.9522 106.931 72.682 107.979 67.3596 107.979C62.0373 107.979 56.7671 106.931 51.8499 104.894C46.9327 102.857 42.4648 99.872 38.7013 96.1085C34.9378 92.3451 31.9525 87.8772 29.9157 82.96Z" stroke="#333333" stroke-width="0.81058" stroke-linecap="round" style="mix-blend-mode:multiply"/>
<path d="M30.4557 88.8947C24.8541 79.1923 23.2847 67.6851 26.0732 56.846C26.1321 56.6172 26.3669 56.4815 26.5952 56.5427V56.5427C26.8234 56.6038 26.9585 56.8387 26.8997 57.0675C24.1699 67.6873 25.7085 78.961 31.1967 88.4669C36.7563 98.0964 45.9135 105.123 56.6538 108.001C67.3942 110.879 78.8378 109.372 88.4673 103.813C97.9732 98.3243 104.943 89.3303 107.888 78.7684C107.952 78.5408 108.186 78.405 108.415 78.4661V78.4661C108.643 78.5273 108.778 78.7622 108.715 78.9898C105.71 89.771 98.5975 98.9518 88.8951 104.554C79.0691 110.227 67.3919 111.764 56.4324 108.827C45.4729 105.891 36.1288 98.7207 30.4557 88.8947Z" stroke="#333333" stroke-width="0.81058" stroke-linecap="round" style="mix-blend-mode:multiply"/>
<path d="M24.0624 79.3056C21.0101 67.9144 22.5495 55.7867 28.3378 45.5257C28.46 45.3091 28.7357 45.2351 28.9511 45.3594V45.3594C29.1665 45.4838 29.2399 45.7594 29.1178 45.976C23.4489 56.0302 21.9419 67.9121 24.9323 79.0725C27.9617 90.3781 35.3581 100.017 45.4944 105.869C55.6307 111.722 67.6767 113.308 78.9823 110.278C90.1427 107.288 99.6792 100.042 105.552 90.1053C105.678 89.8912 105.954 89.817 106.169 89.9413V89.9413C106.385 90.0657 106.458 90.3415 106.332 90.5557C100.34 100.699 90.6065 108.096 79.2154 111.148C67.6791 114.239 55.3873 112.621 45.0441 106.649C34.7009 100.678 27.1535 90.8419 24.0624 79.3056Z" stroke="#333333" stroke-width="0.81058" stroke-linecap="round" style="mix-blend-mode:multiply"/>
<path d="M19.9994 67.5C19.9994 55.0608 24.8787 43.1246 33.5773 34.2502C33.761 34.0629 34.0622 34.0628 34.2477 34.2483V34.2483C34.4332 34.4338 34.4327 34.7346 34.2491 34.922C25.7286 43.6182 20.9494 55.3127 20.9494 67.5C20.9494 79.8458 25.8537 91.686 34.5835 100.416C43.3134 109.146 55.1535 114.05 67.4994 114.05C79.6866 114.05 91.3812 109.271 100.077 100.75C100.265 100.567 100.566 100.566 100.751 100.752V100.752C100.937 100.937 100.936 101.238 100.749 101.422C91.8748 110.121 79.9386 115 67.4994 115C54.9016 115 42.8198 109.996 33.9118 101.088C25.0038 92.1796 19.9994 80.0978 19.9994 67.5Z" stroke="#333333" stroke-width="0.81058" stroke-linecap="round" style="mix-blend-mode:multiply"/>
</g>
</svg>
