<svg width="203" height="203" viewBox="0 0 203 203" fill="none" xmlns="http://www.w3.org/2000/svg">
<path d="M167.833 83.4195C170.174 92.1582 170.772 101.273 169.591 110.242C168.41 119.212 165.474 127.861 160.95 135.696C156.427 143.531 150.404 150.398 143.227 155.906C136.049 161.413 127.857 165.453 119.119 167.794C110.38 170.136 101.266 170.733 92.2959 169.553C83.3263 168.372 74.6771 165.436 66.8421 160.912C59.0072 156.389 52.1399 150.366 46.6325 143.189C41.125 136.011 37.0852 127.819 34.7437 119.08" stroke="white" stroke-width="6.75" stroke-linecap="round"/>
<path d="M140.258 62.279C150.594 72.6147 156.4 86.6331 156.4 101.25C156.4 115.867 150.594 129.885 140.258 140.221C129.922 150.557 115.904 156.364 101.287 156.364C86.6696 156.364 72.6513 150.557 62.3155 140.221" stroke="white" stroke-width="6.75" stroke-linecap="round"/>
<path d="M111.986 61.3233C122.575 64.1607 131.604 71.0884 137.085 80.5824C142.566 90.0764 144.052 101.359 141.214 111.948C138.377 122.538 131.449 131.566 121.955 137.047C112.461 142.529 101.179 144.014 90.5894 141.177" stroke="white" stroke-width="6.75" stroke-linecap="round"/>
<path d="M94.1554 74.632C101.215 72.7404 108.737 73.7307 115.066 77.3849C121.395 81.0392 126.014 87.0581 127.905 94.1176C129.797 101.177 128.807 108.699 125.152 115.028C121.498 121.358 115.479 125.976 108.42 127.868" stroke="white" stroke-width="6.75" stroke-linecap="round"/>
<path d="M89.3548 94.3611C91.182 91.1964 94.1914 88.8872 97.7212 87.9414C101.251 86.9956 105.012 87.4907 108.176 89.3178C111.341 91.145 113.65 94.1544 114.596 97.6842C115.542 101.214 115.047 104.975 113.22 108.139" stroke="white" stroke-width="6.75" stroke-linecap="round"/>
</svg>
