<svg width="38" height="37" viewBox="0 0 38 37" fill="none" xmlns="http://www.w3.org/2000/svg">
<rect width="38" height="37" rx="3" fill="#578CFF"/>
<path d="M9.64104 17.0665C9.12556 17.2647 8.8684 17.8433 9.06665 18.3588C9.2649 18.8743 9.84348 19.1315 10.359 18.9332L10 17.9999L9.64104 17.0665ZM29.7071 18.707C30.0976 18.3164 30.0976 17.6833 29.7071 17.2927L23.3431 10.9288C22.9526 10.5383 22.3195 10.5383 21.9289 10.9288C21.5384 11.3193 21.5384 11.9525 21.9289 12.343L27.5858 17.9999L21.9289 23.6567C21.5384 24.0472 21.5384 24.6804 21.9289 25.0709C22.3195 25.4614 22.9526 25.4614 23.3431 25.0709L29.7071 18.707ZM10 17.9999L10.359 18.9332C13.4004 17.7635 16.1162 17.7523 19.0518 18.0571C21.946 18.3575 25.2245 18.9999 29 18.9999V17.9999V16.9999C25.3556 16.9999 22.384 16.3922 19.2583 16.0678C16.1738 15.7475 13.0996 15.7363 9.64104 17.0665L10 17.9999Z" fill="white"/>
</svg>
