<svg width="24" height="25" viewBox="0 0 24 25" fill="none" xmlns="http://www.w3.org/2000/svg">
<g clip-path="url(#clip0_995_686)">
<path d="M24 12.5728C24 5.94533 18.6274 0.572754 12 0.572754C5.37258 0.572754 0 5.94533 0 12.5728C0 18.5623 4.38825 23.5267 10.125 24.427V16.0415H7.07812V12.5728H10.125V9.929C10.125 6.9215 11.9165 5.26025 14.6576 5.26025C15.9705 5.26025 17.3438 5.49463 17.3438 5.49463V8.44775H15.8306C14.3399 8.44775 13.875 9.37274 13.875 10.3217V12.5728H17.2031L16.6711 16.0415H13.875V24.427C19.6118 23.5267 24 18.5623 24 12.5728Z" fill="#333333"/>
</g>
<defs>
<clipPath id="clip0_995_686">
<rect width="24" height="24" fill="white" transform="translate(0 0.5)"/>
</clipPath>
</defs>
</svg>
