<svg width="24" height="25" viewBox="0 0 24 25" fill="none" xmlns="http://www.w3.org/2000/svg">
<g clip-path="url(#clip0_995_668)">
<path d="M12.0014 1.21143C5.68604 1.21143 0.566406 6.33102 0.566406 12.6464C0.566406 18.9618 5.68604 24.0814 12.0014 24.0814C18.3168 24.0814 23.4364 18.9618 23.4364 12.6464C23.4364 6.33102 18.3168 1.21143 12.0014 1.21143ZM18.7388 14.0997C18.7672 14.2686 18.7832 14.4401 18.7832 14.614C18.7832 17.1285 15.7353 19.1743 11.9885 19.1743C8.24162 19.1743 5.19369 17.1285 5.19369 14.614C5.19369 14.4349 5.21085 14.2584 5.24096 14.0846C4.74568 13.7649 4.4398 13.2171 4.4398 12.623C4.4398 11.6624 5.22133 10.8809 6.18183 10.8809C6.60428 10.8809 7.00298 11.0318 7.31939 11.3056C8.47634 10.5698 10.0183 10.108 11.718 10.0627L12.9407 5.887L16.0103 6.45728L16.0112 6.4577C16.1903 6.13888 16.5216 5.91436 16.913 5.89446C17.5192 5.86348 18.0375 6.33148 18.0684 6.93772C18.0994 7.54391 17.6314 8.06224 17.0251 8.09313C16.4189 8.12403 15.9006 7.65602 15.8697 7.04983C15.8686 7.02901 15.8726 7.0092 15.8728 6.98851L13.3255 6.51517L12.288 10.0637C13.9836 10.1138 15.5207 10.5783 16.6727 11.3154C16.9908 11.0356 17.3937 10.881 17.821 10.881C18.7816 10.881 19.5631 11.6625 19.5631 12.623C19.563 13.2265 19.2477 13.7825 18.7388 14.0997Z" fill="#333333"/>
<path d="M13.9308 16.0032C13.9248 16.0089 13.3307 16.5941 11.9758 16.5941C10.6441 16.5941 10.1125 16.0289 10.0982 16.0134C10.0082 15.9101 9.85183 15.8987 9.74752 15.9876C9.64271 16.0771 9.63047 16.235 9.72022 16.3398C9.74646 16.3705 10.3834 17.0935 11.9758 17.0935C13.5601 17.0935 14.2611 16.3803 14.2902 16.3499C14.3849 16.2508 14.3812 16.0947 14.2832 15.999C14.1846 15.9031 14.0268 15.9054 13.9308 16.0032Z" fill="#333333"/>
<path d="M14.098 14.6842C14.6375 14.6842 15.0748 14.2469 15.0748 13.7073C15.0748 13.1678 14.6375 12.7305 14.098 12.7305C13.5585 12.7305 13.1211 13.1678 13.1211 13.7073C13.1211 14.2469 13.5585 14.6842 14.098 14.6842Z" fill="#333333"/>
<path d="M10.0198 14.6842C10.5594 14.6842 10.9967 14.2469 10.9967 13.7073C10.9967 13.1678 10.5594 12.7305 10.0198 12.7305C9.48033 12.7305 9.04297 13.1678 9.04297 13.7073C9.04297 14.2469 9.48033 14.6842 10.0198 14.6842Z" fill="#333333"/>
</g>
<defs>
<clipPath id="clip0_995_668">
<rect width="24" height="24" fill="white" transform="translate(0 0.5)"/>
</clipPath>
</defs>
</svg>
