<svg width="24" height="25" viewBox="0 0 24 25" fill="none" xmlns="http://www.w3.org/2000/svg">
<path d="M12.1555 11.2294L8.09015 5.54102H5.92188L10.9578 12.5869L11.5917 13.4733L15.9021 19.5094H18.0704L12.7867 12.1157L12.1555 11.2294Z" fill="#333333"/>
<path d="M21.1598 1.5H2.84021C1.82385 1.5 1 2.32385 1 3.34021V21.6598C1 22.6761 1.82385 23.5 2.84021 23.5H21.1598C22.1761 23.5 23 22.6761 23 21.6598V3.34021C23 2.32385 22.1761 1.5 21.1598 1.5ZM15.2354 20.5L10.8728 14.287L5.41144 20.5H4L10.2469 13.3953L4 4.5H8.76465L12.8948 10.382L18.0696 4.5H19.481L13.524 11.2756L20 20.5H15.2354Z" fill="#333333"/>
</svg>
