<svg width="24" height="25" viewBox="0 0 24 25" fill="none" xmlns="http://www.w3.org/2000/svg">
<path d="M12.7321 11.9725V11.9399C12.7253 11.9509 12.7181 11.962 12.7109 11.9725H12.7321Z" fill="#333333"/>
<path d="M20.8568 2.47559H3.02606C2.17262 2.47559 1.48047 3.15122 1.48047 3.98392V22.0234C1.48047 22.8557 2.17262 23.5313 3.02606 23.5313H20.8568C21.7115 23.5313 22.4037 22.8552 22.4037 22.0234V3.98392C22.4037 3.1508 21.7111 2.47559 20.8568 2.47559ZM7.82242 20.1019H4.66224V10.5943H7.82242V20.1019ZM6.24254 9.29548H6.22137C5.16135 9.29548 4.47555 8.56523 4.47555 7.65294C4.47555 6.72034 5.18251 6.01041 6.26328 6.01041C7.34447 6.01041 8.00953 6.72034 8.0307 7.65294C8.0307 8.56523 7.34405 9.29548 6.24254 9.29548ZM19.2181 20.1019H16.0579V15.0143C16.0579 13.7367 15.6007 12.8646 14.4573 12.8646C13.5844 12.8646 13.0645 13.4526 12.8355 14.0207C12.7521 14.2235 12.7318 14.5071 12.7318 14.7916V20.1015H9.57163C9.57163 20.1015 9.61311 11.485 9.57163 10.5938H12.7318V11.9396C13.1518 11.2919 13.9027 10.3695 15.5804 10.3695C17.6594 10.3695 19.2185 11.7288 19.2185 14.6494L19.2181 20.1019Z" fill="#333333"/>
</svg>
